# xmcd
#
# Track frame offsets:
#	150
#	24680
#	45686
#	64255
#	89780
#	114529
#	133282
#	153439
#	175801
#	193850
#	214620
#	234145
#	257079
#	281691
#
# Disc length: 4031 seconds
#
# Revision: 2
# Processed by: cddbd v1.5.2PL0 Copyright (c) Steve Scherf et al.
# Submitted via: EZCDAudioConverter 8.0.2.1
#
DISCID=d00fbd0e
DTITLE=Đàm Vĩnh Hưng - 3H [CD1)
DYEAR=2010
DGENRE=Dance
TTITLE0=Đợi em trong mơ
TTITLE1=Say tình
TTITLE2=Ngàn năm vẫn đợi
TTITLE3=Rồi anh sẽ quên
TTITLE4=Người tình trăm năm
TTITLE5=Xuân yêu thương
TTITLE6=Touch By Touch
TTITLE7=Nuối tiếc
TTITLE8=I Need To Know
TTITLE9=Xa em kỷ niệm
TTITLE10=Đành thôi người ơi
TTITLE11=Giới hạn nào cho chúng ta
TTITLE12=Tình yêu còn đâu
TTITLE13=Đừng thương tôi
EXTD=
EXTT0=
EXTT1=
EXTT2=
EXTT3=
EXTT4=
EXTT5=
EXTT6=
EXTT7=
EXTT8=
EXTT9=
EXTT10=
EXTT11=
EXTT12=
EXTT13=
PLAYORDER=
